P3
5 5
255
 7 7 7	 6 6 6	 15 15 15	 6 6 6	 7 7 7	
 11 11 11	 4 4 4	 4 4 4	 4 4 4	 11 11 11	
 6 6 6	 4 4 4	 1 1 1	 4 4 4	 6 6 6	
 6 6 6	 10 10 10	 0 0 0	 10 10 10	 6 6 6	
 11 11 11	 9 9 9	 6 6 6	 9 9 9	 11 11 11	
