P3
10 10
255
 7 7 7	 7 7 7	 6 6 6	 7 7 7	 11 11 11	 11 11 11	 7 7 7	 6 6 6	 7 7 7	 7 7 7	
 7 7 7	 6 6 6	 5 5 5	 5 5 5	 8 8 8	 8 8 8	 5 5 5	 5 5 5	 6 6 6	 7 7 7	
 8 8 8	 6 6 6	 5 5 5	 4 4 4	 7 7 7	 7 7 7	 4 4 4	 5 5 5	 6 6 6	 8 8 8	
 9 9 9	 12 12 12	 6 6 6	 3 3 3	 6 6 6	 6 6 6	 3 3 3	 6 6 6	 12 12 12	 9 9 9	
 8 8 8	 7 7 7	 9 9 9	 24 24 24	 31 31 31	 31 31 31	 24 24 24	 9 9 9	 7 7 7	 8 8 8	
 6 6 6	 5 5 5	 3 3 3	 5 5 5	 26 26 26	 26 26 26	 5 5 5	 3 3 3	 5 5 5	 6 6 6	
 6 6 6	 5 5 5	 4 4 4	 12 12 12	 15 15 15	 15 15 15	 12 12 12	 4 4 4	 5 5 5	 6 6 6	
 6 6 6	 6 6 6	 8 8 8	 9 9 9	 3 3 3	 3 3 3	 9 9 9	 8 8 8	 6 6 6	 6 6 6	
 8 8 8	 10 10 10	 31 31 31	 7 7 7	 5 5 5	 5 5 5	 7 7 7	 31 31 31	 10 10 10	 8 8 8	
 11 11 11	 15 15 15	 14 14 14	 7 7 7	 6 6 6	 6 6 6	 7 7 7	 14 14 14	 15 15 15	 11 11 11	
